<svg width="182" height="40" viewBox="0 0 182 40" fill="none" xmlns="http://www.w3.org/2000/svg">
<g clip-path="url(#clip0_1587_31879)">
<path d="M165.382 20.5723C167.546 20.5723 169.3 18.8385 169.3 16.6999C169.3 14.5612 167.546 12.8274 165.382 12.8274C163.218 12.8274 161.463 14.5612 161.463 16.6999C161.463 18.8385 163.218 20.5723 165.382 20.5723Z" fill="#F9CF70"/>
<path d="M181.291 11.94C181.189 11.5971 181.071 11.2543 180.939 10.9063C180.347 9.31804 179.52 7.81041 178.469 6.46918C175.882 3.15139 171.989 0.847094 167.81 0.161351C166.305 -0.085718 164.683 -0.110929 163.351 0.61011C162.239 1.21013 161.422 2.32951 161.234 3.5699C161.045 4.81029 161.509 6.13639 162.458 6.96332C163.887 8.21379 165.933 8.18858 167.693 8.60708C169.688 9.08105 171.423 10.4072 172.515 12.1215C173.153 13.1199 173.561 14.2594 173.724 15.4292C173.933 16.9016 173.755 18.4293 173.178 19.8059C171.336 24.1825 165.953 26.2045 161.647 24.117C159.575 23.1136 157.902 21.2328 157.238 19.0395C157.136 18.7067 157.06 18.3688 157.009 18.0209C156.616 15.4393 156.162 12.5955 152.789 12.5652C150.697 12.5451 148.835 14.1031 148.682 16.0494C148.355 20.2445 150.197 24.1523 152.743 27.3995C155.861 31.3778 159.422 35.1292 162.841 38.8504C164.346 40.4891 166.662 40.3328 168.111 38.6386C174.775 30.8484 184.755 23.2447 181.296 11.935L181.291 11.94Z" fill="#F9CF70"/>
<path d="M181.291 11.94C181.189 11.5971 181.071 11.2542 180.939 10.9063C180.347 9.31802 179.52 7.81039 178.469 6.46916C175.882 3.15137 171.989 0.847075 167.811 0.161332C166.305 -0.0857371 164.683 -0.110948 163.351 0.610091C162.239 1.21012 161.422 2.32949 161.234 3.56988C161.045 4.81027 161.509 6.13637 162.458 6.9633C163.887 8.21377 165.933 8.18856 167.693 8.60707C169.688 9.08103 171.423 10.4071 172.515 12.1215C173.153 13.1199 173.561 14.2594 173.724 15.4292C173.933 16.9015 173.755 18.4293 173.178 19.8059C171.336 24.1825 165.953 26.2044 161.647 24.117C159.575 23.1136 157.902 21.2328 157.239 19.0394C157.136 18.7066 157.06 18.3688 157.009 18.0209C156.616 15.4393 156.162 12.5955 152.789 12.5652C150.697 12.545 148.835 14.1031 148.682 16.0494C148.355 20.2445 150.197 24.1523 152.743 27.3995C155.861 31.3778 159.422 35.1292 162.841 38.8504C164.346 40.4891 166.663 40.3328 168.112 38.6386C174.775 30.8483 184.755 23.2447 181.296 11.9349L181.291 11.94Z" fill="#F9CF70"/>
<path d="M154.958 7.86084L153.514 7.11963C153.269 6.99357 152.978 6.97845 152.723 7.08433L151.213 7.68436C150.371 8.02219 149.559 7.1398 149.978 6.34312L150.728 4.91617C150.855 4.67415 150.871 4.38674 150.764 4.13463L150.156 2.64213C149.815 1.81016 150.707 1.00845 151.514 1.42191L152.958 2.16312C153.202 2.28917 153.493 2.3043 153.748 2.19841L155.259 1.59839C156.101 1.26056 156.912 2.14295 156.493 2.93962L155.743 4.36657C155.616 4.6086 155.601 4.896 155.708 5.14812L156.315 6.64062C156.657 7.47258 155.764 8.2743 154.958 7.86084Z" fill="#F9CF70"/>
<path d="M26.6035 17.8192C26.6035 26.623 21.9553 31.6803 13.5569 31.6803C5.15845 31.6803 0 26.623 0 17.8192V5.98008H7.2453V17.8192C7.2453 22.7909 9.54645 25.5691 13.5569 25.5691C17.5673 25.5691 19.5266 22.7909 19.5266 17.8192C19.5266 14.2796 18.4602 11.7534 15.6897 11.7534C14.0671 11.7534 13.4293 12.0913 12.3221 12.5551L10.5312 7.20535C12.1486 6.32296 14.113 5.6473 16.5826 5.6473C22.338 5.6473 26.6035 9.18694 26.6035 17.8243V17.8192Z" fill="#3E404C"/>
<path d="M38.1144 5.98008V20.2647L30.864 21.3589V5.98008H38.1144Z" fill="#3E404C"/>
<path d="M67.1058 25.1456V31.2568H42.8902V25.1456H56.9573V18.7016C56.9573 14.2796 54.8704 11.582 51.1151 11.582C48.5997 11.582 46.2985 12.5955 44.4617 13.6039L42.0738 8.29447C45.3138 6.39859 48.8956 5.47082 52.304 5.47082C60.5748 5.47082 64.1975 9.85251 64.1975 18.1924V25.1456H67.0956H67.1058Z" fill="#3E404C"/>
<path d="M76.6574 5.98008V20.2647L69.4069 21.3589V5.98008H76.6574Z" fill="#3E404C"/>
<path d="M88.8927 5.98008V20.2647L81.6423 21.3589V5.98008H88.8927Z" fill="#3E404C"/>
<path d="M114.43 31.2568H107.44V18.4899C107.44 14.0224 105.225 11.4559 101.302 11.4559C98.6994 11.4559 96.3983 12.4644 94.393 13.4779L92.0052 8.38018C95.7554 6.31791 99.2505 5.64225 102.536 5.64225C109.271 5.64225 114.43 9.43401 114.43 18.1974V31.2568Z" fill="#3E404C"/>
<path d="M140.482 5.98008V12.0913C136.773 12.0913 135.324 14.1989 135.324 18.2831V31.2618H128.079V18.5403C128.079 15.4645 129.017 13.4426 130.594 12.0963H116.736V5.98513H140.482V5.98008Z" fill="#3E404C"/>
</g>
<defs>
<clipPath id="clip0_1587_31879">
<rect width="182" height="40" fill="white"/>
</clipPath>
</defs>
</svg>
